<?xml version="1.0" standalone="no"?>
<!DOCTYPE svg PUBLIC "-//W3C//DTD SVG 20010904//EN"
 "http://www.w3.org/TR/2001/REC-SVG-20010904/DTD/svg10.dtd">
<svg version="1.0" xmlns="http://www.w3.org/2000/svg"
 width="300.000000pt" height="225.000000pt" viewBox="0 0 300.000000 225.000000"
 preserveAspectRatio="xMidYMid meet">
<metadata>
Created by potrace 1.10, written by Peter Selinger 2001-2011
</metadata>
<g transform="translate(0.000000,225.000000) scale(0.100000,-0.100000)"
fill="#54bdb4" stroke="none">
<path d="M2050 1973 c-37 -13 -59 -93 -25 -93 8 0 12 6 9 14 -3 8 -1 24 6 35
21 41 100 16 100 -32 0 -9 7 -17 15 -17 23 0 18 27 -12 59 -28 31 -66 44 -93
34z"/>
<path d="M653 1887 c15 -108 28 -147 49 -147 16 0 19 5 15 23 -3 12 -11 52
-17 89 -9 53 -16 67 -32 71 -19 5 -20 2 -15 -36z"/>
<path d="M1066 1922 c-7 -12 5 -82 15 -82 4 0 3 15 -2 32 -5 18 -9 36 -9 40 0
10 213 8 229 -1 7 -5 11 -21 9 -37 -3 -25 -7 -29 -32 -26 -18 3 -26 0 -22 -7
8 -12 36 -14 60 -5 16 6 12 57 -7 82 -11 14 -232 18 -241 4z"/>
<path d="M1762 1878 c-7 -7 -12 -20 -12 -30 0 -16 -11 -18 -115 -18 -70 0
-115 4 -115 10 0 6 -14 10 -30 10 -29 0 -31 -2 -25 -32 3 -18 12 -64 18 -103
l13 -70 173 -3 173 -2 -6 27 c-16 82 -18 103 -8 103 18 0 42 31 42 54 0 47
-76 86 -108 54z m60 -50 c-21 -21 -23 -21 -39 -5 -10 10 -12 17 -6 17 7 0 15
-5 19 -11 5 -8 10 -6 16 5 5 9 14 16 21 16 6 0 1 -10 -11 -22z m-24 -38 c7 0
12 -4 12 -9 0 -16 -36 0 -49 22 -13 21 -13 21 6 5 11 -10 25 -18 31 -18z
m-152 5 c-2 -5 -11 -9 -22 -8 -20 2 -57 -35 -48 -49 13 -21 68 -34 99 -24 64
23 66 34 11 67 -17 10 -26 19 -21 20 6 1 23 3 39 5 16 1 35 -3 43 -11 8 -8 23
-21 33 -28 11 -8 22 -31 26 -55 l7 -42 -51 0 c-31 0 -52 5 -55 13 -3 8 -19 11
-46 9 -53 -5 -54 -19 -1 -16 22 1 40 -3 40 -8 0 -11 -170 -1 -181 11 -6 6 -29
101 -29 121 0 5 36 8 80 7 48 -1 78 -6 76 -12z m5 -66 c-9 -23 -10 -23 -10 -2
-1 12 2 30 6 40 6 15 8 15 11 2 1 -8 -2 -26 -7 -40z m-28 21 c6 -22 0 -25 -23
-10 -13 9 -13 11 0 20 8 5 16 10 16 10 1 0 4 -9 7 -20z m76 11 c15 -9 7 -31
-11 -31 -6 0 -8 3 -5 7 4 3 2 12 -4 20 -13 15 -1 17 20 4z"/>
<path d="M2045 1840 c22 -24 87 -27 105 -5 16 19 5 34 -12 17 -15 -15 -64 -16
-73 -2 -3 6 -13 10 -22 10 -14 0 -14 -3 2 -20z"/>
<path d="M1135 1840 c3 -5 12 -7 20 -3 21 7 19 13 -6 13 -11 0 -18 -4 -14 -10z"/>
<path d="M1200 1846 c0 -9 30 -14 35 -6 4 6 -3 10 -14 10 -12 0 -21 -2 -21 -4z"/>
<path d="M603 1826 c3 -8 9 -31 13 -50 4 -27 11 -36 26 -36 16 0 18 5 13 38
-10 57 -13 62 -36 62 -14 0 -19 -5 -16 -14z"/>
<path d="M1100 1815 c0 -8 2 -15 4 -15 2 0 6 7 10 15 3 8 1 15 -4 15 -6 0 -10
-7 -10 -15z"/>
<path d="M549 1778 c5 -25 13 -34 30 -36 21 -3 23 -1 18 20 -4 12 -7 29 -7 36
0 6 -11 12 -24 12 -21 0 -23 -3 -17 -32z"/>
<path d="M900 1765 c0 -13 23 -15 145 -15 124 0 144 2 139 15 -5 12 -31 15
-145 15 -117 0 -139 -2 -139 -15z"/>
<path d="M1350 1749 c0 -5 5 -7 10 -4 6 3 10 8 10 11 0 2 -4 4 -10 4 -5 0 -10
-5 -10 -11z"/>
<path d="M1380 1750 c0 -5 5 -10 10 -10 6 0 10 5 10 10 0 6 -4 10 -10 10 -5 0
-10 -4 -10 -10z"/>
<path d="M1415 1750 c3 -5 8 -10 11 -10 2 0 4 5 4 10 0 6 -5 10 -11 10 -5 0
-7 -4 -4 -10z"/>
<path d="M1908 1743 c7 -3 16 -2 19 1 4 3 -2 6 -13 5 -11 0 -14 -3 -6 -6z"/>
<path d="M910 1738 c0 -2 11 -61 25 -133 14 -71 25 -130 25 -132 0 -2 16 -3
35 -3 19 0 35 -4 35 -9 0 -5 7 -11 15 -15 8 -3 14 0 12 7 -1 7 10 13 25 15 32
4 26 19 68 -197 17 -89 36 -161 45 -171 13 -15 34 -18 124 -18 60 0 130 3 157
7 38 7 18 9 -90 10 -115 1 -143 4 -158 18 -10 9 -18 11 -18 5 0 -6 6 -13 13
-15 7 -4 6 -6 -4 -6 -14 -1 -22 26 -43 142 -15 78 -31 154 -36 169 -7 22 -5
30 8 37 15 9 14 11 -8 21 l-25 11 25 -6 c14 -2 34 -5 45 -5 17 0 17 -2 5 -10
-13 -8 -12 -10 3 -10 9 0 17 5 17 10 0 6 7 10 15 10 15 0 14 27 -5 95 -5 17
-14 63 -21 103 l-12 72 -139 0 c-76 0 -138 -1 -138 -2z m248 -22 c19 -11 14
-24 -10 -29 -20 -4 -19 -4 5 -6 24 -1 27 -5 27 -36 l0 -35 -65 6 c-42 3 -65 1
-65 -6 0 -5 8 -10 18 -10 14 0 15 -2 2 -10 -11 -7 -12 -14 -3 -32 19 -39 22
-68 8 -68 -7 0 -15 -5 -17 -10 -2 -7 -17 -6 -43 3 -29 10 -41 21 -47 43 -4 16
-6 35 -3 42 3 7 0 10 -5 7 -6 -3 -10 -1 -10 4 0 6 5 11 10 11 6 0 10 5 10 10
0 6 -7 10 -15 10 -8 0 -15 7 -15 15 0 8 6 15 13 15 8 0 7 3 -3 10 -18 11 -22
46 -6 59 6 5 20 10 30 12 35 7 172 3 184 -5z m25 -123 c3 -5 8 -27 12 -50 l7
-43 -51 0 c-43 0 -51 3 -51 19 0 10 -3 33 -6 50 l-6 31 45 0 c25 0 48 -3 50
-7z"/>
<path d="M998 1683 c12 -2 32 -2 45 0 12 2 2 4 -23 4 -25 0 -35 -2 -22 -4z"/>
<path d="M940 1670 c0 -5 5 -10 10 -10 6 0 10 5 10 10 0 6 -4 10 -10 10 -5 0
-10 -4 -10 -10z"/>
<path d="M1080 1670 c0 -5 -26 -11 -57 -12 -43 -1 -48 -2 -20 -5 20 -2 37 -9
37 -14 0 -6 -12 -8 -30 -4 -16 3 -37 2 -47 -4 -14 -8 -11 -10 17 -6 29 4 31 3
15 -5 -16 -8 -14 -9 10 -3 17 4 55 7 85 7 56 -1 43 13 -15 16 l-30 1 25 10
c17 7 32 7 49 -1 17 -8 27 -8 35 0 7 7 2 10 -16 10 -15 0 -30 5 -33 10 -3 6
-10 10 -16 10 -5 0 -9 -4 -9 -10z"/>
<path d="M998 1583 c12 -2 30 -2 40 0 9 3 -1 5 -23 4 -22 0 -30 -2 -17 -4z"/>
<path d="M980 1562 c0 -5 14 -7 30 -4 17 2 30 6 30 8 0 2 -13 4 -30 4 -16 0
-30 -4 -30 -8z"/>
<path d="M1330 1700 c0 -5 5 -10 11 -10 5 0 7 5 4 10 -3 6 -8 10 -11 10 -2 0
-4 -4 -4 -10z"/>
<path d="M1428 1703 c7 -3 16 -2 19 1 4 3 -2 6 -13 5 -11 0 -14 -3 -6 -6z"/>
<path d="M1909 1685 c-12 -20 4 -75 22 -75 8 0 8 4 1 13 -6 6 -12 26 -14 42
-1 17 -6 26 -9 20z"/>
<path d="M1945 1680 c5 -7 12 -27 16 -44 7 -29 8 -29 6 8 -1 24 -8 41 -16 44
-9 3 -11 0 -6 -8z"/>
<path d="M430 1665 c-6 -8 -10 -22 -7 -32 4 -14 5 -13 6 5 1 17 7 22 26 22 14
0 25 -4 25 -10 0 -5 14 -13 32 -18 17 -4 33 -13 36 -20 3 -9 -16 -12 -67 -12
-59 0 -71 3 -71 16 0 14 -3 14 -15 4 -29 -24 -14 -30 80 -30 71 0 95 3 95 13
0 19 -21 37 -43 37 -10 0 -30 9 -44 20 -31 24 -37 25 -53 5z"/>
<path d="M1340 1667 c0 -8 -8 -18 -17 -20 -17 -4 -17 -5 0 -6 18 -1 35 25 23
36 -3 4 -6 -1 -6 -10z"/>
<path d="M1401 1664 c0 -11 3 -14 6 -6 3 7 2 16 -1 19 -3 4 -6 -2 -5 -13z"/>
<path d="M768 1643 c7 -3 16 -2 19 1 4 3 -2 6 -13 5 -11 0 -14 -3 -6 -6z"/>
<path d="M868 1643 c7 -3 16 -2 19 1 4 3 -2 6 -13 5 -11 0 -14 -3 -6 -6z"/>
<path d="M1248 1643 c7 -3 16 -2 19 1 4 3 -2 6 -13 5 -11 0 -14 -3 -6 -6z"/>
<path d="M1405 1630 c3 -5 8 -10 11 -10 2 0 4 5 4 10 0 6 -5 10 -11 10 -5 0
-7 -4 -4 -10z"/>
<path d="M1465 1590 c-3 -5 -17 -10 -31 -10 -14 0 -27 -7 -31 -17 -4 -10 -13
-23 -21 -29 -8 -6 -12 -19 -10 -30 3 -17 12 -19 83 -19 79 0 80 0 80 25 0 20
-4 24 -23 22 -42 -6 -71 38 -35 52 11 5 22 1 30 -10 7 -10 16 -15 19 -11 10
10 -16 37 -37 37 -10 0 -21 -4 -24 -10z m-12 -51 c8 -11 24 -21 36 -22 11 -1
21 -4 21 -8 0 -8 -65 -15 -97 -11 -26 4 -31 22 -7 22 10 0 14 6 11 14 -12 30
16 35 36 5z"/>
<path d="M2127 1576 c-40 -27 -51 -84 -18 -93 11 -3 20 -13 19 -22 -3 -38 3
-71 12 -71 6 0 10 11 10 25 0 29 15 33 24 8 11 -30 33 -65 48 -74 19 -12 48
-11 48 2 0 6 9 22 20 36 38 49 19 163 -28 163 -13 0 -14 2 -3 9 19 12 -1 23
-57 31 -35 6 -50 3 -75 -14z m126 -46 c30 -33 35 -81 15 -125 -10 -23 -48 -36
-48 -16 0 5 -22 33 -50 63 -69 74 -65 108 15 108 34 0 47 -6 68 -30z"/>
<path d="M635 1560 c-3 -5 1 -10 10 -10 9 0 13 5 10 10 -3 6 -8 10 -10 10 -2
0 -7 -4 -10 -10z"/>
<path d="M670 1560 c0 -5 5 -10 10 -10 6 0 10 5 10 10 0 6 -4 10 -10 10 -5 0
-10 -4 -10 -10z"/>
<path d="M705 1560 c-3 -5 -1 -10 4 -10 6 0 11 5 11 10 0 6 -2 10 -4 10 -3 0
-8 -4 -11 -10z"/>
<path d="M740 1560 c0 -5 5 -10 10 -10 6 0 10 5 10 10 0 6 -4 10 -10 10 -5 0
-10 -4 -10 -10z"/>
<path d="M775 1560 c-3 -5 -1 -10 4 -10 6 0 11 5 11 10 0 6 -2 10 -4 10 -3 0
-8 -4 -11 -10z"/>
<path d="M810 1560 c0 -5 5 -10 11 -10 5 0 7 5 4 10 -3 6 -8 10 -11 10 -2 0
-4 -4 -4 -10z"/>
<path d="M845 1560 c-3 -5 -1 -10 4 -10 6 0 11 5 11 10 0 6 -2 10 -4 10 -3 0
-8 -4 -11 -10z"/>
<path d="M880 1560 c0 -5 5 -10 11 -10 5 0 7 5 4 10 -3 6 -8 10 -11 10 -2 0
-4 -4 -4 -10z"/>
<path d="M595 1540 c-10 -11 -16 -22 -13 -25 3 -3 13 6 22 20 20 30 16 32 -9
5z"/>
<path d="M1245 1540 c3 -5 28 -10 55 -10 27 0 52 5 55 10 4 6 -17 10 -55 10
-38 0 -59 -4 -55 -10z"/>
<path d="M1550 1540 c0 -6 71 -10 194 -10 143 0 196 -3 203 -12 6 -7 23 -80
38 -163 15 -82 31 -157 36 -165 15 -28 10 19 -21 180 -21 109 -35 159 -47 168
-21 15 -403 18 -403 2z"/>
<path d="M1353 1486 c1 -11 9 -21 17 -23 10 -3 11 -2 4 4 -6 4 -14 15 -17 23
-5 11 -6 9 -4 -4z"/>
<path d="M1612 1478 c3 -7 13 -15 23 -16 9 -2 15 0 11 6 -5 8 131 7 217 -2 17
-1 27 2 27 11 0 10 -30 13 -141 13 -108 0 -140 -3 -137 -12z"/>
<path d="M589 1465 c-1 -5 -1 -13 0 -17 0 -5 -6 -8 -14 -8 -8 0 -15 -4 -15
-10 0 -5 4 -10 9 -10 5 0 8 -8 7 -17 0 -10 5 -17 12 -15 6 1 12 -5 12 -13 0
-18 16 -20 23 -2 4 10 6 10 6 0 1 -19 21 -16 21 3 0 8 5 12 10 9 6 -3 10 1 10
9 0 9 -6 16 -12 16 -10 0 -10 2 -1 8 8 5 5 14 -12 30 -16 15 -26 19 -30 11 -6
-8 -10 -7 -16 2 -5 8 -9 10 -10 4z m46 -45 c3 -5 4 -14 0 -20 -8 -13 -35 -1
-35 16 0 16 26 19 35 4z"/>
<path d="M1620 1436 c0 -8 4 -17 9 -20 5 -4 7 3 4 14 -6 23 -13 26 -13 6z"/>
<path d="M1892 1420 c0 -14 4 -38 8 -55 7 -27 8 -27 8 -5 0 14 -4 39 -8 55 -7
27 -8 27 -8 5z"/>
<path d="M2095 1402 c1 -20 4 -52 9 -70 7 -30 10 -33 37 -27 24 6 31 3 38 -17
10 -23 10 -23 10 -1 1 22 -28 46 -50 41 -14 -3 -27 32 -28 80 -1 45 -16 40
-16 -6z"/>
<path d="M1060 1410 c0 -5 5 -10 11 -10 5 0 7 5 4 10 -3 6 -8 10 -11 10 -2 0
-4 -4 -4 -10z"/>
<path d="M1210 1412 c0 -4 21 -5 46 -3 32 2 49 -1 55 -10 6 -9 9 -10 9 -2 0 6
8 14 18 16 9 3 -16 5 -55 6 -40 0 -73 -2 -73 -7z"/>
<path d="M1364 1413 c10 -10 226 -10 226 -1 0 5 -52 8 -117 8 -64 0 -113 -3
-109 -7z"/>
<path d="M690 1398 c0 -4 46 -8 101 -8 85 0 104 -3 116 -17 14 -17 14 -17 9 0
-3 10 -6 22 -6 26 0 4 -49 7 -110 7 -60 0 -110 -4 -110 -8z"/>
<path d="M1162 1380 c0 -14 2 -19 5 -12 2 6 2 18 0 25 -3 6 -5 1 -5 -13z"/>
<path d="M1510 1390 l-35 -7 38 -2 c20 0 37 4 37 9 0 6 -1 9 -2 9 -2 -1 -19
-5 -38 -9z"/>
<path d="M1637 1365 c3 -22 7 -42 9 -44 8 -9 2 45 -6 64 -7 14 -8 8 -3 -20z"/>
<path d="M1227 1345 c3 -27 7 -52 9 -54 7 -8 2 54 -6 79 -6 17 -7 9 -3 -25z"/>
<path d="M1386 1382 c-2 -4 13 -6 35 -4 21 2 39 6 39 8 0 7 -69 4 -74 -4z"/>
<path d="M1592 1370 c0 -14 4 -36 8 -50 6 -20 8 -21 8 -5 0 11 -4 34 -8 50 -7
27 -8 27 -8 5z"/>
<path d="M1322 1360 c0 -14 2 -19 5 -12 2 6 2 18 0 25 -3 6 -5 1 -5 -13z"/>
<path d="M1423 1363 c15 -2 39 -2 55 0 15 2 2 4 -28 4 -30 0 -43 -2 -27 -4z"/>
<path d="M1515 1360 c3 -5 14 -10 23 -10 15 0 15 2 2 10 -20 13 -33 13 -25 0z"/>
<path d="M620 1351 c0 -15 40 -145 53 -169 6 -13 35 -40 64 -60 l53 -37 0 -62
c0 -59 2 -63 23 -63 13 0 17 3 11 8 -11 7 -24 102 -14 102 3 0 14 -7 24 -15
11 -8 37 -15 59 -15 21 0 47 -5 58 -10 11 -7 19 -7 19 -1 0 5 36 10 81 10 44
0 84 3 90 6 10 7 -19 32 -108 95 -35 23 -63 50 -63 59 0 9 -5 23 -11 31 -9 12
-10 11 -6 -7 5 -23 4 -23 -126 -25 -73 -1 -106 -3 -74 -5 33 -2 55 -8 52 -14
-4 -5 4 -9 17 -9 18 0 20 2 8 10 -12 8 -11 10 8 10 13 0 22 -6 22 -16 0 -8 4
-13 8 -10 5 3 25 6 45 8 21 1 37 6 37 10 0 4 8 0 18 -9 16 -17 12 -18 -98 -23
l-115 -6 133 -2 c72 -1 132 -6 132 -10 0 -5 10 -14 23 -19 17 -9 -7 -12 -107
-14 -122 -4 -131 -3 -165 20 -64 42 -92 73 -85 94 4 14 3 17 -6 12 -9 -5 -10
-1 -5 15 5 16 4 20 -5 15 -9 -5 -10 -1 -5 15 5 17 4 21 -6 15 -9 -6 -11 -2 -7
13 4 12 3 20 -2 17 -4 -3 -10 2 -13 9 -3 8 -1 16 6 19 6 2 4 6 -6 10 -9 3 -17
2 -17 -2z m497 -288 c-2 -1 -59 -3 -127 -5 -95 -2 -131 1 -150 12 -23 14 -16
15 100 20 97 4 131 2 152 -9 15 -8 26 -16 25 -18z"/>
<path d="M1683 1353 c9 -2 25 -2 35 0 9 3 1 5 -18 5 -19 0 -27 -2 -17 -5z"/>
<path d="M1748 1353 c6 -2 18 -2 25 0 6 3 1 5 -13 5 -14 0 -19 -2 -12 -5z"/>
<path d="M904 1339 c-2 -4 2 -24 8 -46 12 -36 15 -38 61 -41 47 -3 48 -2 42
20 -20 63 -23 66 -65 70 -23 2 -43 1 -46 -3z m64 -21 c5 -7 13 -23 16 -35 11
-34 -27 -31 -43 3 -16 37 3 61 27 32z"/>
<path d="M1172 1330 c0 -14 2 -19 5 -12 2 6 2 18 0 25 -3 6 -5 1 -5 -13z"/>
<path d="M690 1288 c14 -44 21 -54 42 -56 l26 -3 -17 55 c-14 49 -19 56 -42
56 l-26 0 17 -52z m40 -10 c0 -20 -15 -24 -26 -7 -3 6 -1 15 6 19 8 5 7 9 -5
14 -9 3 -13 11 -9 17 9 15 34 -17 34 -43z"/>
<path d="M768 1333 c17 -2 47 -2 65 0 17 2 3 4 -33 4 -36 0 -50 -2 -32 -4z"/>
<path d="M1675 1335 c23 -8 85 -10 85 -3 0 4 -21 8 -47 7 -27 0 -43 -2 -38 -4z"/>
<path d="M1332 1310 c0 -14 2 -19 5 -12 2 6 2 18 0 25 -3 6 -5 1 -5 -13z"/>
<path d="M1513 1323 c9 -2 23 -2 30 0 6 3 -1 5 -18 5 -16 0 -22 -2 -12 -5z"/>
<path d="M1808 1323 c6 -2 18 -2 25 0 6 3 1 5 -13 5 -14 0 -19 -2 -12 -5z"/>
<path d="M1867 1323 c22 -4 26 -11 39 -73 6 -33 7 -34 17 -13 5 12 6 30 2 40
-5 10 -7 25 -6 34 1 12 -8 16 -36 16 -21 0 -28 -2 -16 -4z"/>
<path d="M2260 1308 c0 -16 5 -28 10 -28 13 0 13 20 0 40 -8 12 -10 9 -10 -12z"/>
<path d="M1360 1310 c0 -5 5 -10 11 -10 5 0 7 5 4 10 -3 6 -8 10 -11 10 -2 0
-4 -4 -4 -10z"/>
<path d="M1652 1290 c0 -14 2 -19 5 -12 2 6 2 18 0 25 -3 6 -5 1 -5 -13z"/>
<path d="M854 1284 c30 -29 19 -43 -36 -47 l-53 -3 63 -2 c34 -1 62 0 62 2 0
20 -25 66 -37 66 -12 0 -12 -2 1 -16z"/>
<path d="M1182 1275 c0 -16 2 -22 5 -12 2 9 2 23 0 30 -3 6 -5 -1 -5 -18z"/>
<path d="M1791 1284 c0 -11 3 -14 6 -6 3 7 2 16 -1 19 -3 4 -6 -2 -5 -13z"/>
<path d="M1242 1260 c0 -14 2 -19 5 -12 2 6 2 18 0 25 -3 6 -5 1 -5 -13z"/>
<path d="M1611 1264 c0 -11 3 -14 6 -6 3 7 2 16 -1 19 -3 4 -6 -2 -5 -13z"/>
<path d="M2261 1258 c-19 -5 -43 -7 -54 -4 -38 10 -153 -62 -258 -160 -46 -43
-77 -64 -100 -68 -96 -16 -226 -26 -253 -20 -25 5 -29 4 -18 -7 14 -15 54 -16
177 -5 98 9 124 16 148 40 14 14 18 11 47 -40 26 -46 34 -54 46 -44 17 15 19
33 2 27 -7 -2 -23 14 -36 36 -17 30 -20 43 -11 53 6 8 16 11 22 7 5 -3 7 -2 4
4 -4 6 7 22 23 37 17 14 30 24 30 22 0 -3 11 6 24 19 13 13 51 37 85 54 86 44
191 42 191 -3 0 -5 -7 -1 -16 10 -8 10 -13 13 -9 6 4 -7 -4 -16 -20 -22 -34
-13 -38 -27 -82 -259 -20 -110 -40 -198 -44 -196 -3 3 -4 -8 -1 -23 5 -25 4
-26 -14 -12 -10 8 -45 41 -77 72 -55 53 -58 59 -52 90 8 38 42 100 79 143 38
44 21 44 -25 -1 -28 -27 -45 -56 -58 -98 l-18 -59 -132 -37 c-73 -21 -140 -45
-148 -53 -10 -10 -26 -77 -44 -184 -15 -92 -30 -180 -33 -195 -5 -25 -3 -26
39 -30 l45 -3 51 155 c28 85 55 159 59 163 7 8 100 -265 100 -292 0 -12 10
-13 60 -5 l36 6 -26 116 c-25 115 -26 117 -55 120 -42 5 -57 20 -45 43 9 16
25 19 142 21 l131 3 48 244 c27 134 53 248 60 251 6 4 34 5 63 3 l51 -5 -20
23 c-48 56 -72 68 -114 57z m-220 -477 c49 -44 87 -93 59 -76 -22 14 -183 5
-201 -11 -19 -17 -41 -18 -57 -2 -20 20 -39 -9 -73 -110 -54 -165 -70 -202
-85 -202 -17 0 -18 44 -4 121 6 30 13 68 15 84 3 17 8 42 11 57 3 15 7 41 9
59 6 43 17 51 105 79 41 13 90 28 109 35 50 18 58 15 112 -34z m-94 -196 c4
-3 43 -159 43 -172 0 -7 -8 -13 -18 -13 -13 0 -23 15 -36 56 -9 30 -19 63 -21
72 -2 9 -8 29 -14 45 -10 26 -10 27 17 21 15 -4 28 -8 29 -9z"/>
<path d="M1801 1234 c0 -11 3 -14 6 -6 3 7 2 16 -1 19 -3 4 -6 -2 -5 -13z"/>
<path d="M1192 1220 c0 -14 2 -19 5 -12 2 6 2 18 0 25 -3 6 -5 1 -5 -13z"/>
<path d="M1661 1233 c-3 -40 7 -43 145 -43 133 0 134 0 133 23 -1 16 -2 18 -6
5 -5 -19 -33 -25 -33 -8 0 6 -18 10 -40 10 -22 0 -40 -4 -40 -10 0 -6 -30 -10
-70 -10 -64 0 -72 2 -80 23 -5 12 -9 17 -9 10z"/>
<path d="M1251 1213 c-1 -16 5 -23 17 -23 10 0 13 3 6 8 -6 4 -14 14 -17 22
-4 10 -6 8 -6 -7z"/>
<path d="M1620 1216 c0 -8 -6 -17 -12 -19 -8 -3 -6 -6 5 -6 11 -1 17 6 17 19
0 11 -2 20 -5 20 -3 0 -5 -6 -5 -14z"/>
<path d="M1350 1207 c0 -10 8 -17 18 -17 9 0 13 4 7 8 -5 4 -13 11 -17 16 -5
5 -8 2 -8 -7z"/>
<path d="M1202 1165 c0 -16 2 -22 5 -12 2 9 2 23 0 30 -3 6 -5 -1 -5 -18z"/>
<path d="M2485 1171 c105 -7 103 -4 81 -118 -29 -145 -68 -348 -75 -383 l-6
-35 -79 -5 c-66 -4 -81 -8 -90 -25 -17 -31 -27 -35 -98 -35 -65 0 -68 1 -83
30 -15 29 -17 30 -83 28 l-67 -2 68 -3 c56 -3 67 -7 67 -21 0 -33 22 -42 105
-42 84 0 105 9 105 42 0 16 10 18 79 18 67 0 80 3 85 18 16 53 97 495 94 514
-3 22 -7 23 -98 24 l-95 1 90 -6z"/>
<path d="M1417 1154 c-4 -4 -7 -12 -7 -17 0 -6 3 -7 7 -4 3 4 13 1 21 -5 12
-10 14 -9 11 6 -4 21 -21 31 -32 20z"/>
<path d="M1460 1145 c0 -8 5 -15 10 -15 6 0 10 7 10 15 0 8 -4 15 -10 15 -5 0
-10 -7 -10 -15z"/>
<path d="M1497 1154 c-8 -8 1 -24 14 -24 5 0 9 7 9 15 0 15 -12 20 -23 9z"/>
<path d="M1530 1146 c0 -9 7 -16 16 -16 17 0 14 22 -4 28 -7 2 -12 -3 -12 -12z"/>
<path d="M1570 1145 c0 -8 5 -15 10 -15 6 0 10 7 10 15 0 8 -4 15 -10 15 -5 0
-10 -7 -10 -15z"/>
<path d="M1602 1149 c2 -7 10 -15 17 -17 8 -3 12 1 9 9 -2 7 -10 15 -17 17 -8
3 -12 -1 -9 -9z"/>
<path d="M1640 1145 c0 -8 5 -15 10 -15 6 0 10 7 10 15 0 8 -4 15 -10 15 -5 0
-10 -7 -10 -15z"/>
<path d="M1676 1152 c-3 -6 -1 -14 5 -17 15 -10 25 3 12 16 -7 7 -13 7 -17 1z"/>
<path d="M1710 1146 c0 -9 7 -16 16 -16 9 0 14 5 12 12 -6 18 -28 21 -28 4z"/>
<path d="M1750 1145 c0 -8 5 -15 10 -15 6 0 10 7 10 15 0 8 -4 15 -10 15 -5 0
-10 -7 -10 -15z"/>
<path d="M1780 1150 c0 -9 31 -30 44 -30 3 0 6 8 6 18 0 13 -2 14 -9 4 -7 -11
-9 -11 -14 2 -7 17 -27 22 -27 6z"/>
<path d="M896 1119 c4 -7 84 -2 92 6 2 2 -18 3 -46 2 -27 -1 -48 -5 -46 -8z"/>
<path d="M2311 1094 c0 -11 3 -14 6 -6 3 7 2 16 -1 19 -3 4 -6 -2 -5 -13z"/>
<path d="M1640 1090 c0 -6 -28 -10 -64 -10 -60 0 -66 -2 -85 -29 -23 -32 -28
-76 -10 -87 8 -5 10 3 7 24 -3 23 0 32 11 34 9 2 16 12 16 23 0 17 8 20 55 23
64 4 59 -14 -5 -21 l-40 -4 47 -1 c37 -2 50 2 65 21 17 21 27 22 152 24 74 2
136 5 139 8 3 3 -61 5 -141 5 -91 0 -147 -4 -147 -10z"/>
<path d="M871 1004 c0 -11 3 -14 6 -6 3 7 2 16 -1 19 -3 4 -6 -2 -5 -13z"/>
<path d="M1526 989 c-34 -27 -25 -39 30 -39 28 0 43 4 39 10 -3 6 -23 10 -43
10 l-37 0 25 20 c14 11 22 20 19 20 -4 0 -18 -9 -33 -21z"/>
<path d="M1905 965 c-24 -10 -130 -14 -130 -5 0 1 -38 4 -85 6 -53 3 -81 1
-75 -5 6 -5 71 -13 146 -16 110 -6 141 -5 164 7 36 19 20 29 -20 13z"/>
<path d="M2181 964 c0 -11 3 -14 6 -6 3 7 2 16 -1 19 -3 4 -6 -2 -5 -13z"/>
<path d="M903 963 c15 -2 39 -2 55 0 15 2 2 4 -28 4 -30 0 -43 -2 -27 -4z"/>
<path d="M1005 963 c11 -2 29 -8 40 -13 28 -12 125 -19 125 -9 0 5 -27 9 -61
9 -37 0 -58 4 -54 10 4 6 -9 10 -32 9 -21 -1 -29 -3 -18 -6z"/>
<path d="M635 920 l0 -30 118 0 117 0 -5 -37 c-3 -21 -17 -155 -30 -298 -14
-143 -27 -270 -30 -282 -3 -13 -1 -23 4 -23 12 0 12 1 67 343 l48 297 123 0
123 0 -5 -27 c-3 -16 -16 -147 -30 -293 -14 -146 -27 -277 -30 -292 -2 -16 0
-28 4 -28 12 0 11 -5 67 348 l47 293 168 -3 c92 -2 165 1 162 5 -3 5 -91 7
-196 6 -144 -3 -191 -1 -195 9 -2 8 -9 9 -20 3 -9 -5 -58 -7 -108 -5 -61 2
-97 -1 -107 -9 -12 -8 -22 -47 -33 -120 -10 -60 -20 -103 -25 -96 -7 12 -6 37
7 151 4 44 3 59 -8 63 -7 2 -58 6 -113 7 -85 3 -100 6 -103 20 -3 15 7 18 70
21 l73 3 -80 2 -80 2 0 -30z m562 -92 c-11 -105 -30 -208 -39 -208 -5 0 -7 8
-4 18 2 9 7 53 11 97 8 108 15 145 27 145 6 0 8 -21 5 -52z"/>
<path d="M1253 943 c42 -2 112 -2 155 0 42 1 7 3 -78 3 -85 0 -120 -2 -77 -3z"/>
<path d="M1604 885 c-7 -17 4 -157 13 -165 3 -3 3 34 -1 83 l-7 87 120 0 c99
0 121 -3 121 -14 0 -8 4 -18 10 -21 6 -4 7 2 1 17 -8 22 -13 23 -130 26 -101
2 -122 0 -127 -13z"/>
<path d="M1918 893 c12 -2 30 -2 40 0 9 3 -1 5 -23 4 -22 0 -30 -2 -17 -4z"/>
<path d="M2162 860 c0 -14 2 -19 5 -12 2 6 2 18 0 25 -3 6 -5 1 -5 -13z"/>
<path d="M1561 860 c0 -8 13 -98 29 -200 16 -102 30 -189 30 -194 0 -5 2 -7 5
-4 3 3 -6 79 -19 169 -25 166 -43 257 -45 229z"/>
<path d="M2241 744 c0 -11 3 -14 6 -6 3 7 2 16 -1 19 -3 4 -6 -2 -5 -13z"/>
<path d="M1621 654 c1 -32 5 -70 9 -84 5 -15 6 7 3 55 -7 96 -13 112 -12 29z"/>
<path d="M2231 694 c0 -11 3 -14 6 -6 3 7 2 16 -1 19 -3 4 -6 -2 -5 -13z"/>
<path d="M2212 450 c2 -55 1 -102 -2 -103 -3 -2 0 -3 6 -1 6 1 15 -1 20 -6 9
-9 7 172 -1 198 -2 6 -9 12 -15 12 -8 0 -10 -32 -8 -100z"/>
<path d="M1966 335 c-2 -6 -21 -16 -42 -24 -48 -16 -84 -38 -84 -51 0 -15 213
-13 228 2 21 21 13 32 -9 12 -15 -13 -24 -16 -37 -8 -17 10 -93 11 -109 1 -5
-3 -15 -2 -23 4 -12 7 -9 9 10 10 79 5 92 9 110 31 11 12 19 25 20 28 0 10
-60 5 -64 -5z m24 -25 c0 -5 -4 -10 -10 -10 -5 0 -10 5 -10 10 0 6 5 10 10 10
6 0 10 -4 10 -10z"/>
<path d="M1570 312 c-61 -25 -79 -37 -80 -54 0 -5 47 -8 105 -8 114 0 111 -2
99 59 -8 39 -32 40 -124 3z m101 -2 c6 0 8 -4 4 -9 -3 -5 -1 -12 5 -16 5 -3
10 -11 10 -17 0 -7 -4 -7 -13 0 -7 7 -29 9 -49 6 -22 -4 -38 -2 -43 6 -5 7 -1
11 11 10 30 -3 60 1 47 7 -7 2 -13 9 -13 15 0 6 7 7 16 4 9 -3 20 -6 25 -6z
m-106 -40 c-3 -5 -12 -7 -20 -3 -21 7 -19 13 6 13 11 0 18 -4 14 -10z"/>
<path d="M2065 321 c-2 -5 11 -6 31 -4 25 2 34 0 32 -9 -8 -43 58 -80 69 -38
3 11 13 20 22 20 13 0 14 2 1 9 -10 7 -18 4 -28 -10 -16 -23 -38 -25 -46 -3
-9 24 -8 27 18 22 13 -3 31 1 41 8 15 11 7 13 -58 13 -42 0 -79 -4 -82 -8z"/>
<path d="M2263 324 c3 -3 40 -7 81 -8 75 -2 118 -18 83 -32 -10 -3 -26 -4 -37
-1 -23 6 -26 -3 -8 -21 19 -19 36 -14 54 13 28 42 6 55 -94 55 -47 0 -83 -3
-79 -6z"/>
<path d="M2245 290 c6 -9 104 -5 114 5 2 3 -24 5 -58 5 -38 0 -60 -4 -56 -10z"/>
</g>
</svg>
